<?xml version="1.0" encoding="UTF-8"?>
<svg width="100px" height="75px" viewBox="0 0 100 75" version="1.1" xmlns="http://www.w3.org/2000/svg" xmlns:xlink="http://www.w3.org/1999/xlink">
    <!-- Generator: Sketch 47.1 (45422) - http://www.bohemiancoding.com/sketch -->
    <title>Untitled</title>
    <desc>Created with Sketch.</desc>
    <defs></defs>
    <g id="Page-1" stroke="none" stroke-width="1" fill="none" fill-rule="evenodd">
        <g id="leaf" fill-rule="nonzero" fill="#FFFFFF">
            <path d="M30.5,63.2 C30.5,63.2 33.1,61.3 33.9,60.4 C34.7,59.5 35.9,57.9 35.9,57.9 C35.9,57.9 31.2,57.2 28,56.3 C24.8,55.4 18.3,52.6 18.3,52.6 C18.3,52.6 19.6,52.2 21.2,51.2 C22.8,50.1 23.2,49.5 23.2,49.5 C23.2,49.5 18.5,48.2 15.7,47.1 C12.9,46.1 8.4,44.2 8.4,44.2 C8.4,44.2 9.8,44 11.2,42.9 C12.6,41.8 12.7,40.7 12.7,40.7 C12.7,40.7 8.4,39.3 6,37.9 C3.6,36.4 0.7,34.2 0.7,34.2 C0.7,34.2 5.9,30.2 9.4,28.7 C12.9,27.2 18.5,26.1 18.5,26.1 C18.5,26.1 17.6,24.6 16.4,23.5 C15.3,22.4 12.2,20.6 12.2,20.6 C12.2,20.6 17.8,18.7 20.5,18.1 C23.2,17.5 28.7,18.1 28.7,18.1 C28.7,18.1 28.6,17 27.4,15.9 C26.2,14.8 24.7,13.9 24.7,13.9 C24.7,13.9 32,11.4 36,10.4 C40,9.4 46.8,9.8 46.8,9.8 C46.8,9.8 45.1,8.1 44,7 C42.9,5.9 41.3,4.7 41.3,4.7 C41.3,4.7 46.7,4.3 50.4,4.3 C54.1,4.4 59.9,5.4 59.9,5.4 C59.9,5.4 59.2,4.4 58.5,3.1 C57.7,1.8 57,0.5 57,0.5 C57,0.5 64.1,2.2 66.5,3.3 C68.9,4.3 74.1,7.2 74.1,7.2 C74.1,7.2 74,5.4 73.1,3.7 C72.2,2 71.3,0.7 71.3,0.7 C71.3,0.7 99,17.9 99.4,34.2 C99.5,36 99.3,37.9 99.1,39.7 C97.6,39 96,38.4 94.4,37.9 C92.1,31.6 90.1,28 88,25.3 C85.6,22.4 81.1,17.3 78.4,16.2 C80.7,18.1 85.2,22.4 88.1,28 C90.4,32.6 91.1,33.6 91.9,37.2 C88.3,36.1 84.6,35.3 80.9,34.7 C80.2,34.6 79.5,34.5 78.8,34.4 C76.8,30.1 74.4,25.6 71.2,22.9 C67.5,19.7 62.9,16.2 60.1,15.4 C62.7,16.9 68.8,22.2 71.9,26.3 C74.1,29.3 74.8,31.4 75.9,34 C70.9,33.4 66,33.1 61,32.9 C59,29.2 56.5,25.4 53.4,23.3 C50,20.9 45.8,18.3 43.4,17.8 C45.7,18.9 51.3,22.9 54.2,26.1 C56.5,28.7 57.2,30.5 58.4,33 C47.3,33.4 36.4,34.7 25.6,36.6 C35,35.8 44.5,35.6 53.9,36 C52.8,37.7 52.1,39 50.1,40.7 C47.5,42.9 42.6,45.2 40.6,45.6 C42.6,45.7 46.2,44.3 49.2,43 C51.9,41.7 54.3,38.9 56.3,36.1 C58.1,36.2 59.8,36.3 61.6,36.4 C64.5,36.5 67.4,36.7 70.3,36.9 C68.9,39.9 68.3,41.9 65.7,45 C62.6,48.6 56.6,53 54.1,54.2 C56.8,53.8 61.3,50.9 64.9,48.3 C68.2,45.9 70.9,41.5 73,37.3 C75.7,37.6 78.4,37.9 81.1,38.4 C83.1,38.7 85,39.1 87,39.6 C85.1,43.7 85,44.2 82,47.6 C78.6,51.5 72.9,56.5 70.4,58 C73.3,57.3 78.9,53.3 81.5,51.3 C83.9,49.5 87.3,45.8 89.7,40.2 C92.7,41 95.6,42.1 98.4,43.4 C95.3,56.3 86.5,67.5 86.5,67.5 C86.5,67.5 86.7,65.8 86,63.6 C85.2,61.4 85,61.6 85,61.6 C85,61.6 83.9,64.5 80,68.4 C76.1,72.3 71.1,73.4 71.1,73.4 C71.1,73.4 71.8,72.3 71.9,71 C72,69.7 71.6,69 71.6,69 C71.6,69 69,70.9 66.3,72 C63.6,73.2 57.7,74.5 57.7,74.5 C57.7,74.5 59.3,72.6 59.6,71.5 C59.9,70.5 59.3,69.6 59.3,69.6 C59.3,69.6 55.4,71.1 51.8,71.1 C48.2,71.1 44.1,69.6 44.1,69.6 C44.1,69.6 45.1,69.1 45.8,67.8 C46.6,66.5 46,65.9 46,65.9 C46,65.9 41.6,66.4 38.5,66 C35.6,65.3 30.5,63.2 30.5,63.2 Z" id="Shape"></path>
        </g>
    </g>
</svg>